<?xml version="1.0" encoding="UTF-8" standalone="no"?>
<svg xmlns="http://www.w3.org/2000/svg" width="256" height="256" viewBox="0 0 256 256">
  <circle cx="128" cy="128" r="120" fill="#2c3e50"/>
  <g transform="translate(64,64) scale(0.5,0.5)">
    <!-- Microphone -->
    <rect x="108" y="28" width="40" height="100" rx="20" ry="20" fill="#ecf0f1"/>
    <path d="M88,128 v20 c0,22 18,40 40,40 22,0 40,-18 40,-40 v-20" stroke="#ecf0f1" stroke-width="12" fill="none"/>
    <path d="M128,188 v40" stroke="#ecf0f1" stroke-width="12" fill="none"/>
    <path d="M88,228 h80" stroke="#ecf0f1" stroke-width="12" fill="none"/>
    
    <!-- Sound waves -->
    <path d="M68,108 c-10,0 -20,10 -20,20 0,10 10,20 20,20" stroke="#3498db" stroke-width="8" fill="none"/>
    <path d="M188,108 c10,0 20,10 20,20 0,10 -10,20 -20,20" stroke="#3498db" stroke-width="8" fill="none"/>
    <path d="M48,88 c-15,0 -30,20 -30,40 0,20 15,40 30,40" stroke="#3498db" stroke-width="8" fill="none"/>
    <path d="M208,88 c15,0 30,20 30,40 0,20 -15,40 -30,40" stroke="#3498db" stroke-width="8" fill="none"/>
  </g>
</svg>
